<mxfile host="app.diagrams.net" modified="2021-06-03T11:14:22.180Z" agent="5.0 (Windows)" etag="zBl_0RaKiXDxu0XAXa1U" version="14.7.4" type="github">
  <diagram id="Oj9UeGTiviX2KA7pD1Jg" name="Page-1">
    <mxGraphModel dx="780" dy="799" grid="1" gridSize="10" guides="1" tooltips="1" connect="1" arrows="1" fold="1" page="1" pageScale="1" pageWidth="850" pageHeight="1100" math="0" shadow="0">
      <root>
        <mxCell id="0" />
        <mxCell id="1" parent="0" />
        <mxCell id="RwogmHGbZzXlzQffm5Ik-1" value="Keyboard, Mouse, Monitor" style="rounded=0;whiteSpace=wrap;html=1;" parent="1" vertex="1">
          <mxGeometry x="180" y="140" width="440" height="40" as="geometry" />
        </mxCell>
        <mxCell id="RwogmHGbZzXlzQffm5Ik-2" value="System Call Interface" style="rounded=0;whiteSpace=wrap;html=1;" parent="1" vertex="1">
          <mxGeometry x="180" y="260" width="440" height="40" as="geometry" />
        </mxCell>
        <mxCell id="RwogmHGbZzXlzQffm5Ik-3" value="" style="rounded=0;whiteSpace=wrap;html=1;" parent="1" vertex="1">
          <mxGeometry x="180" y="340" width="440" height="100" as="geometry" />
        </mxCell>
        <mxCell id="RwogmHGbZzXlzQffm5Ik-4" value="Memory Manager" style="rounded=0;whiteSpace=wrap;html=1;" parent="1" vertex="1">
          <mxGeometry x="200" y="360" width="120" height="60" as="geometry" />
        </mxCell>
        <mxCell id="RwogmHGbZzXlzQffm5Ik-5" value="Interrupt Handler " style="rounded=0;whiteSpace=wrap;html=1;" parent="1" vertex="1">
          <mxGeometry x="340" y="360" width="120" height="60" as="geometry" />
        </mxCell>
        <mxCell id="RwogmHGbZzXlzQffm5Ik-6" value="Video Driver" style="rounded=0;whiteSpace=wrap;html=1;" parent="1" vertex="1">
          <mxGeometry x="480" y="360" width="120" height="60" as="geometry" />
        </mxCell>
        <mxCell id="RwogmHGbZzXlzQffm5Ik-7" value="" style="endArrow=classic;startArrow=classic;html=1;entryX=0.5;entryY=1;entryDx=0;entryDy=0;exitX=0.5;exitY=0;exitDx=0;exitDy=0;" parent="1" source="RwogmHGbZzXlzQffm5Ik-3" target="RwogmHGbZzXlzQffm5Ik-2" edge="1">
          <mxGeometry width="50" height="50" relative="1" as="geometry">
            <mxPoint x="370" y="440" as="sourcePoint" />
            <mxPoint x="420" y="390" as="targetPoint" />
          </mxGeometry>
        </mxCell>
        <mxCell id="RwogmHGbZzXlzQffm5Ik-8" value="" style="endArrow=classic;startArrow=classic;html=1;entryX=0.5;entryY=1;entryDx=0;entryDy=0;exitX=0.5;exitY=0;exitDx=0;exitDy=0;" parent="1" source="RwogmHGbZzXlzQffm5Ik-2" target="RwogmHGbZzXlzQffm5Ik-1" edge="1">
          <mxGeometry width="50" height="50" relative="1" as="geometry">
            <mxPoint x="370" y="430" as="sourcePoint" />
            <mxPoint x="420" y="380" as="targetPoint" />
          </mxGeometry>
        </mxCell>
        <mxCell id="RwogmHGbZzXlzQffm5Ik-9" value="" style="endArrow=none;dashed=1;html=1;" parent="1" edge="1">
          <mxGeometry width="50" height="50" relative="1" as="geometry">
            <mxPoint x="120" y="220" as="sourcePoint" />
            <mxPoint x="680" y="220" as="targetPoint" />
          </mxGeometry>
        </mxCell>
        <mxCell id="RwogmHGbZzXlzQffm5Ik-10" value="User space" style="text;html=1;strokeColor=none;fillColor=none;align=center;verticalAlign=middle;whiteSpace=wrap;rounded=0;" parent="1" vertex="1">
          <mxGeometry x="420" y="190" width="80" height="20" as="geometry" />
        </mxCell>
        <mxCell id="RwogmHGbZzXlzQffm5Ik-11" value="Kernel Space" style="text;html=1;strokeColor=none;fillColor=none;align=center;verticalAlign=middle;whiteSpace=wrap;rounded=0;" parent="1" vertex="1">
          <mxGeometry x="420" y="230" width="80" height="20" as="geometry" />
        </mxCell>
      </root>
    </mxGraphModel>
  </diagram>
</mxfile>
